<svg xmlns="http://www.w3.org/2000/svg" width="768" height="750" viewBox="0 0 768 750" role="img" aria-labelledby="title desc"><title id="title">MB01 · Home · 768px · light</title><desc id="desc">Static eLabTrack V2 Phase 3A.2 visual proposal. Synthetic data. Not an implemented application. Full-page composition; interaction, scrolling, focus and safe-area behavior are specified separately.</desc><g font-family="system-ui, -apple-system, Segoe UI, sans-serif"><rect width="768" height="750" fill="#F6F7F4"/><rect x="0" y="0" width="768" height="72" rx="0" fill="#FFFFFF"/><text x="24.0" y="43" font-size="22" fill="#12645C" font-weight="650">eLabTrack</text><path d="M6 9a6 6 0 0 1 12 0v7l2 2H4l2-2V9M9 21h6" transform="translate(710 25) scale(0.8333333333333334)" fill="none" stroke="#12645C" stroke-width="1.8" stroke-linecap="round" stroke-linejoin="round"/><text x="24.0" y="96" font-size="14" fill="#536660" font-weight="400">FSMO / Borrower</text><text x="24.0" y="150" font-size="28" fill="#172C29" font-weight="650">Home</text><text x="24.0" y="177" font-size="14" fill="#536660" font-weight="400">Visual proposal · synthetic sample</text><rect x="24.0" y="200" width="348.0" height="108" rx="12" fill="#FFFFFF" stroke="#D2DCD6"/><path d="M3 7l9-4 9 4v10l-9 4-9-4V7Zm0 0 9 4 9-4M12 11v10" transform="translate(40.0 218) scale(0.8333333333333334)" fill="none" stroke="#12645C" stroke-width="1.8" stroke-linecap="round" stroke-linejoin="round"/><text x="70.0" y="238" font-size="18" fill="#172C29" font-weight="600">Good morning, Alex</text><text x="40.0" y="272" font-size="16" fill="#536660" font-weight="400">Your FSMO equipment, in one place.</text><rect x="396.0" y="200" width="348.0" height="216" rx="12" fill="#FFFFFF" stroke="#D2DCD6"/><path d="M12 3 2 21h20L12 3ZM12 9v5M12 17v1" transform="translate(412.0 218) scale(0.8333333333333334)" fill="none" stroke="#805000" stroke-width="1.8" stroke-linecap="round" stroke-linejoin="round"/><text x="442.0" y="238" font-size="18" fill="#172C29" font-weight="600">Needs your attention</text><text x="412.0" y="272" font-size="16" fill="#536660" font-weight="400">Active borrowing · ET-1042</text><text x="412.0" y="300" font-size="16" fill="#536660" font-weight="400">Overdue · due 08 Oct 2026, 10:00</text><text x="412.0" y="328" font-size="16" fill="#536660" font-weight="400">Replacement required · 1 measuring</text><text x="412.0" y="352" font-size="16" fill="#536660" font-weight="400">jug</text><text x="412.0" y="380" font-size="16" fill="#536660" font-weight="400">Bring the replacement to FSMO.</text><rect x="24.0" y="328" width="348.0" height="184" rx="12" fill="#FFFFFF" stroke="#D2DCD6"/><path d="M3 7l9-4 9 4v10l-9 4-9-4V7Zm0 0 9 4 9-4M12 11v10" transform="translate(40.0 346) scale(0.8333333333333334)" fill="none" stroke="#12645C" stroke-width="1.8" stroke-linecap="round" stroke-linejoin="round"/><text x="70.0" y="366" font-size="18" fill="#172C29" font-weight="600">Your next visit</text><text x="40.0" y="400" font-size="16" fill="#536660" font-weight="400">Return equipment or replacements</text><text x="40.0" y="424" font-size="16" fill="#536660" font-weight="400">in person.</text><text x="40.0" y="452" font-size="16" fill="#536660" font-weight="400">Staff records the condition and</text><text x="40.0" y="476" font-size="16" fill="#536660" font-weight="400">quantities.</text><rect x="396.0" y="436" width="348.0" height="136" rx="12" fill="#FFFFFF" stroke="#D2DCD6"/><path d="M3 7l9-4 9 4v10l-9 4-9-4V7Zm0 0 9 4 9-4M12 11v10" transform="translate(412.0 454) scale(0.8333333333333334)" fill="none" stroke="#12645C" stroke-width="1.8" stroke-linecap="round" stroke-linejoin="round"/><text x="442.0" y="474" font-size="18" fill="#172C29" font-weight="600">Recent activity</text><text x="412.0" y="508" font-size="16" fill="#536660" font-weight="400">08 Oct, 09:15 · Return recorded</text><text x="412.0" y="536" font-size="16" fill="#536660" font-weight="400">07 Oct, 09:00 · Equipment issued</text><rect x="24.0" y="592" width="300" height="44" rx="8" fill="#12645C"/><text x="38.0" y="620" font-size="14" fill="#FFFFFF" font-weight="600">Browse equipment</text><rect x="0" y="662" width="768" height="88" rx="0" fill="#FFFFFF"/><path d="M0 662L768 662" fill="none" stroke="#D2DCD6"/><rect x="8.0" y="671" width="176.0" height="70" rx="8" fill="#E3EEE9"/><path d="M3 10l9-7 9 7M5 9v12h14V9M9 21v-7h6v7" transform="translate(86.0 678) scale(0.8333333333333334)" fill="none" stroke="#12645C" stroke-width="1.8" stroke-linecap="round" stroke-linejoin="round"/><text x="10.0" y="722" font-size="14" fill="#12645C" font-weight="600">Home</text><path d="M3 7l9-4 9 4v10l-9 4-9-4V7Zm0 0 9 4 9-4M12 11v10" transform="translate(278.0 678) scale(0.8333333333333334)" fill="none" stroke="#536660" stroke-width="1.8" stroke-linecap="round" stroke-linejoin="round"/><text x="202.0" y="722" font-size="14" fill="#536660" font-weight="400">Equipment</text><path d="M8 6h13M8 12h13M8 18h13M3 6h1M3 12h1M3 18h1" transform="translate(470.0 678) scale(0.8333333333333334)" fill="none" stroke="#536660" stroke-width="1.8" stroke-linecap="round" stroke-linejoin="round"/><text x="394.0" y="722" font-size="14" fill="#536660" font-weight="400">My Borrowings</text><path d="M16 7a4 4 0 1 1-8 0 4 4 0 0 1 8 0M4 21v-2a8 8 0 0 1 16 0v2" transform="translate(662.0 678) scale(0.8333333333333334)" fill="none" stroke="#536660" stroke-width="1.8" stroke-linecap="round" stroke-linejoin="round"/><text x="586.0" y="722" font-size="14" fill="#536660" font-weight="400">Account</text></g></svg>
