<svg xmlns="http://www.w3.org/2000/svg" width="390" height="1158" viewBox="0 0 390 1158" role="img" aria-labelledby="title desc"><title id="title">MB05 · Requested due date · 390px · dark</title><desc id="desc">Static eLabTrack V2 Phase 3A.2 visual proposal. Synthetic data. Not an implemented application. Full-page composition; interaction, scrolling, focus and safe-area behavior are specified separately.</desc><g font-family="system-ui, -apple-system, Segoe UI, sans-serif"><rect width="390" height="1158" fill="#111B19"/><rect x="0" y="0" width="390" height="72" rx="0" fill="#1B2824"/><text x="16.0" y="43" font-size="22" fill="#80D7BC" font-weight="650">eLabTrack</text><path d="M6 9a6 6 0 0 1 12 0v7l2 2H4l2-2V9M9 21h6" transform="translate(340 25) scale(0.8333333333333334)" fill="none" stroke="#80D7BC" stroke-width="1.8" stroke-linecap="round" stroke-linejoin="round"/><text x="16.0" y="96" font-size="14" fill="#B0C4B8" font-weight="400">FSMO / Borrower</text><text x="16.0" y="150" font-size="24" fill="#EAF2ED" font-weight="650">Requested due date</text><text x="16.0" y="177" font-size="14" fill="#B0C4B8" font-weight="400">Visual proposal · synthetic sample</text><rect x="16.0" y="200" width="358" height="136" rx="12" fill="#1B2824" stroke="#42584B"/><path d="M3 7l9-4 9 4v10l-9 4-9-4V7Zm0 0 9 4 9-4M12 11v10" transform="translate(32.0 218) scale(0.8333333333333334)" fill="none" stroke="#80D7BC" stroke-width="1.8" stroke-linecap="round" stroke-linejoin="round"/><text x="62.0" y="238" font-size="18" fill="#EAF2ED" font-weight="600">When will you return it?</text><text x="32.0" y="272" font-size="16" fill="#B0C4B8" font-weight="400">Date and time are both required.</text><text x="32.0" y="300" font-size="16" fill="#B0C4B8" font-weight="400">Times shown in Asia/Manila.</text><rect x="16.0" y="356" width="358" height="236" rx="12" fill="#1B2824" stroke="#42584B"/><path d="M3 7l9-4 9 4v10l-9 4-9-4V7Zm0 0 9 4 9-4M12 11v10" transform="translate(32.0 374) scale(0.8333333333333334)" fill="none" stroke="#80D7BC" stroke-width="1.8" stroke-linecap="round" stroke-linejoin="round"/><text x="62.0" y="394" font-size="18" fill="#EAF2ED" font-weight="600">Requested due</text><text x="32.0" y="428" font-size="14" fill="#EAF2ED" font-weight="600">Date</text><rect x="32.0" y="445" width="326" height="44" rx="8" fill="#1B2824" stroke="#879F91" stroke-width="1"/><text x="44.0" y="473" font-size="14" fill="#EAF2ED" font-weight="400">09 Oct 2026</text><text x="32.0" y="506" font-size="14" fill="#EAF2ED" font-weight="600">Time</text><rect x="32.0" y="523" width="326" height="44" rx="8" fill="#1B2824" stroke="#879F91" stroke-width="1"/><text x="44.0" y="551" font-size="14" fill="#EAF2ED" font-weight="400">14:00</text><rect x="16.0" y="612" width="358" height="164" rx="12" fill="#1B2824" stroke="#42584B"/><path d="M3 7l9-4 9 4v10l-9 4-9-4V7Zm0 0 9 4 9-4M12 11v10" transform="translate(32.0 630) scale(0.8333333333333334)" fill="none" stroke="#80D7BC" stroke-width="1.8" stroke-linecap="round" stroke-linejoin="round"/><text x="62.0" y="650" font-size="18" fill="#EAF2ED" font-weight="600">Calendar · October 2026</text><text x="32.0" y="684" font-size="16" fill="#B0C4B8" font-weight="400">Mo  Tu  We  Th  Fr  Sa  Su</text><text x="32.0" y="712" font-size="16" fill="#B0C4B8" font-weight="400">05  06  07  08  09  10  11</text><text x="32.0" y="740" font-size="16" fill="#B0C4B8" font-weight="400">12  13  14  15  16  17  18</text><rect x="16.0" y="796" width="358" height="184" rx="12" fill="#1B2824" stroke="#42584B"/><path d="M12 8v4l3 2M21 12a9 9 0 1 1-18 0 9 9 0 0 1 18 0" transform="translate(32.0 814) scale(0.8333333333333334)" fill="none" stroke="#A1CDEB" stroke-width="1.8" stroke-linecap="round" stroke-linejoin="round"/><text x="62.0" y="834" font-size="18" fill="#EAF2ED" font-weight="600">At your visit</text><text x="32.0" y="868" font-size="16" fill="#B0C4B8" font-weight="400">Staff confirms the due time at</text><text x="32.0" y="892" font-size="16" fill="#B0C4B8" font-weight="400">handover.</text><text x="32.0" y="920" font-size="16" fill="#B0C4B8" font-weight="400">The deadline stays fixed after</text><text x="32.0" y="944" font-size="16" fill="#B0C4B8" font-weight="400">issue.</text><rect x="16.0" y="1000" width="358" height="44" rx="8" fill="#80D7BC"/><text x="30.0" y="1028" font-size="14" fill="#112A22" font-weight="600">Review request</text><rect x="0" y="1070" width="390" height="88" rx="0" fill="#1B2824"/><path d="M0 1070L390 1070" fill="none" stroke="#42584B"/><path d="M3 10l9-7 9 7M5 9v12h14V9M9 21v-7h6v7" transform="translate(38.75 1086) scale(0.8333333333333334)" fill="none" stroke="#B0C4B8" stroke-width="1.8" stroke-linecap="round" stroke-linejoin="round"/><text x="10.0" y="1130" font-size="14" fill="#B0C4B8" font-weight="400">Home</text><rect x="105.5" y="1079" width="81.5" height="70" rx="8" fill="#294139"/><path d="M3 7l9-4 9 4v10l-9 4-9-4V7Zm0 0 9 4 9-4M12 11v10" transform="translate(136.25 1086) scale(0.8333333333333334)" fill="none" stroke="#80D7BC" stroke-width="1.8" stroke-linecap="round" stroke-linejoin="round"/><text x="107.5" y="1130" font-size="14" fill="#80D7BC" font-weight="600">Equipment</text><path d="M8 6h13M8 12h13M8 18h13M3 6h1M3 12h1M3 18h1" transform="translate(233.75 1086) scale(0.8333333333333334)" fill="none" stroke="#B0C4B8" stroke-width="1.8" stroke-linecap="round" stroke-linejoin="round"/><text x="233.0" y="1120" font-size="14" fill="#B0C4B8" font-weight="400">My</text><text x="205.0" y="1140" font-size="14" fill="#B0C4B8" font-weight="400">Borrowings</text><path d="M16 7a4 4 0 1 1-8 0 4 4 0 0 1 8 0M4 21v-2a8 8 0 0 1 16 0v2" transform="translate(331.25 1086) scale(0.8333333333333334)" fill="none" stroke="#B0C4B8" stroke-width="1.8" stroke-linecap="round" stroke-linejoin="round"/><text x="302.5" y="1130" font-size="14" fill="#B0C4B8" font-weight="400">Account</text></g></svg>
