<svg xmlns="http://www.w3.org/2000/svg" width="1440" height="1169" viewBox="0 0 1440 1169" role="img" aria-labelledby="title desc"><title id="title">MS16 · Borrowings · 1440px · light</title><desc id="desc">Static eLabTrack V2 Phase 3A.2 visual proposal. Synthetic data. Not an implemented application. Full-page composition; interaction, scrolling, focus and safe-area behavior are specified separately.</desc><g font-family="system-ui, -apple-system, Segoe UI, sans-serif"><rect width="1440" height="1169" fill="#F6F7F4"/><rect x="0" y="0" width="216" height="1169" rx="0" fill="#FFFFFF"/><text x="20" y="38" font-size="22" fill="#12645C" font-weight="650">eLabTrack</text><text x="20" y="62" font-size="14" fill="#536660" font-weight="400">FSMO · Staff</text><path d="M3 10l9-7 9 7M5 9v12h14V9M9 21v-7h6v7" transform="translate(22 112) scale(0.8333333333333334)" fill="none" stroke="#12645C" stroke-width="1.8" stroke-linecap="round" stroke-linejoin="round"/><text x="52" y="129" font-size="14" fill="#172C29" font-weight="400">Dashboard</text><rect x="12" y="162" width="192" height="52" rx="8" fill="#E3EEE9"/><path d="M8 6h13M8 12h13M8 18h13M3 6h1M3 12h1M3 18h1" transform="translate(22 176) scale(0.8333333333333334)" fill="none" stroke="#12645C" stroke-width="1.8" stroke-linecap="round" stroke-linejoin="round"/><text x="52" y="193" font-size="14" fill="#172C29" font-weight="600">Requests &amp;</text><text x="52" y="214" font-size="14" fill="#172C29" font-weight="600">Borrowings</text><path d="M8 6h13M8 12h13M8 18h13M3 6h1M3 12h1M3 18h1" transform="translate(22 240) scale(0.8333333333333334)" fill="none" stroke="#12645C" stroke-width="1.8" stroke-linecap="round" stroke-linejoin="round"/><text x="52" y="257" font-size="14" fill="#172C29" font-weight="400">Inventory</text><path d="M8 6h13M8 12h13M8 18h13M3 6h1M3 12h1M3 18h1" transform="translate(22 304) scale(0.8333333333333334)" fill="none" stroke="#12645C" stroke-width="1.8" stroke-linecap="round" stroke-linejoin="round"/><text x="52" y="321" font-size="14" fill="#172C29" font-weight="400">Borrowers</text><rect x="216" y="0" width="1224" height="72" rx="0" fill="#FFFFFF"/><text x="248" y="44" font-size="16" fill="#172C29" font-weight="600">FSMO operations</text><path d="M6 9a6 6 0 0 1 12 0v7l2 2H4l2-2V9M9 21h6" transform="translate(1200 25) scale(0.8333333333333334)" fill="none" stroke="#12645C" stroke-width="1.8" stroke-linecap="round" stroke-linejoin="round"/><text x="1232" y="44" font-size="14" fill="#172C29" font-weight="400">Theme   ·   Account</text><text x="248" y="116" font-size="28" fill="#172C29" font-weight="650">Borrowings</text><text x="248" y="143" font-size="14" fill="#536660" font-weight="400">Visual proposal · synthetic sample</text><rect x="248" y="166" width="1160" height="182" rx="12" fill="#FFFFFF" stroke="#D2DCD6"/><path d="M3 7l9-4 9 4v10l-9 4-9-4V7Zm0 0 9 4 9-4M12 11v10" transform="translate(268 184) scale(0.8333333333333334)" fill="none" stroke="#12645C" stroke-width="1.8" stroke-linecap="round" stroke-linejoin="round"/><text x="298" y="204" font-size="18" fill="#172C29" font-weight="600">Borrowing filters</text><rect x="268" y="229" width="1120" height="44" rx="8" fill="#FFFFFF" stroke="#75877F" stroke-width="1"/><path d="M16 10a6 6 0 1 1-12 0 6 6 0 0 1 12 0M15 15l6 6" transform="translate(278 240) scale(0.8333333333333334)" fill="none" stroke="#536660" stroke-width="1.8" stroke-linecap="round" stroke-linejoin="round"/><text x="308" y="256" font-size="14" fill="#536660" font-weight="400">Search borrower or borrowing</text><rect x="268" y="280" width="1120" height="44" rx="8" fill="#FFFFFF" stroke="#75877F" stroke-width="1"/><path d="M8 6h13M8 12h13M8 18h13M3 6h1M3 12h1M3 18h1" transform="translate(278 291) scale(0.8333333333333334)" fill="none" stroke="#536660" stroke-width="1.8" stroke-linecap="round" stroke-linejoin="round"/><text x="308" y="307" font-size="14" fill="#536660" font-weight="400">Active · Overdue · Completed</text><rect x="248" y="368" width="1160" height="251" rx="12" fill="#FFFFFF" stroke="#D2DCD6"/><path d="M3 7l9-4 9 4v10l-9 4-9-4V7Zm0 0 9 4 9-4M12 11v10" transform="translate(268 386) scale(0.8333333333333334)" fill="none" stroke="#12645C" stroke-width="1.8" stroke-linecap="round" stroke-linejoin="round"/><text x="298" y="406" font-size="18" fill="#172C29" font-weight="600">Borrowings</text><rect x="268" y="436" width="1120" height="42" rx="4" fill="#EDF1EE"/><text x="276" y="457" font-size="14" fill="#536660" font-weight="600">Borrowing</text><text x="496.8450704225352" y="457" font-size="14" fill="#536660" font-weight="600">Borrower</text><text x="654.5915492957746" y="457" font-size="14" fill="#536660" font-weight="600">Due</text><text x="812.338028169014" y="457" font-size="14" fill="#536660" font-weight="600">Physical out</text><text x="970.0845070422534" y="457" font-size="14" fill="#536660" font-weight="600">Replace owed</text><text x="1127.8309859154929" y="457" font-size="14" fill="#536660" font-weight="600">State</text><text x="1285.5774647887324" y="457" font-size="14" fill="#536660" font-weight="600">Action</text><text x="276" y="509" font-size="14" fill="#172C29" font-weight="400">ET-1042</text><text x="496.8450704225352" y="509" font-size="14" fill="#172C29" font-weight="400">Alex Student</text><text x="654.5915492957746" y="509" font-size="14" fill="#172C29" font-weight="400">08 Oct 10:00</text><text x="812.338028169014" y="509" font-size="14" fill="#172C29" font-weight="400">1</text><text x="970.0845070422534" y="509" font-size="14" fill="#172C29" font-weight="400">1</text><text x="1127.8309859154929" y="509" font-size="14" fill="#172C29" font-weight="400">Active / Overdue</text><rect x="1285.5774647887324" y="491" width="94.42253521126759" height="44" rx="8" fill="#FFFFFF" stroke="#75877F" stroke-width="1"/><text x="1299.5774647887324" y="519" font-size="14" fill="#172C29" font-weight="600">Open</text><path d="M268 543L1388 543" fill="none" stroke="#D2DCD6"/><text x="276" y="569" font-size="14" fill="#172C29" font-weight="400">ET-1041</text><text x="496.8450704225352" y="569" font-size="14" fill="#172C29" font-weight="400">Jamie Faculty</text><text x="654.5915492957746" y="569" font-size="14" fill="#172C29" font-weight="400">09 Oct 14:00</text><text x="812.338028169014" y="569" font-size="14" fill="#172C29" font-weight="400">2</text><text x="970.0845070422534" y="569" font-size="14" fill="#172C29" font-weight="400">0</text><text x="1127.8309859154929" y="569" font-size="14" fill="#172C29" font-weight="400">Active</text><rect x="1285.5774647887324" y="551" width="94.42253521126759" height="44" rx="8" fill="#FFFFFF" stroke="#75877F" stroke-width="1"/><text x="1299.5774647887324" y="579" font-size="14" fill="#172C29" font-weight="600">Open</text><path d="M268 603L1388 603" fill="none" stroke="#D2DCD6"/><rect x="248" y="639" width="1160" height="192" rx="12" fill="#FFFFFF" stroke="#D2DCD6"/><path d="M3 7l9-4 9 4v10l-9 4-9-4V7Zm0 0 9 4 9-4M12 11v10" transform="translate(268 657) scale(0.8333333333333334)" fill="none" stroke="#12645C" stroke-width="1.8" stroke-linecap="round" stroke-linejoin="round"/><text x="298" y="677" font-size="18" fill="#172C29" font-weight="600">ET-1042 · detail variant</text><text x="268" y="711" font-size="16" fill="#536660" font-weight="400">Issued 3 · good returned 1 · damaged 1</text><text x="268" y="739" font-size="16" fill="#536660" font-weight="400">Still physically out 1 · replacement owed 1</text><text x="268" y="767" font-size="16" fill="#536660" font-weight="400">Fine PHP 10.00 as of 08 Oct 11:00</text><text x="268" y="795" font-size="16" fill="#536660" font-weight="400">Original due 08 Oct 10:00; history retained.</text><rect x="248" y="851" width="1160" height="164" rx="12" fill="#FFFFFF" stroke="#D2DCD6"/><path d="M12 8v4l3 2M21 12a9 9 0 1 1-18 0 9 9 0 0 1 18 0" transform="translate(268 869) scale(0.8333333333333334)" fill="none" stroke="#235D83" stroke-width="1.8" stroke-linecap="round" stroke-linejoin="round"/><text x="298" y="889" font-size="18" fill="#172C29" font-weight="600">Operational actions</text><text x="268" y="923" font-size="16" fill="#536660" font-weight="400">Record return / Accept replacement</text><text x="268" y="951" font-size="16" fill="#536660" font-weight="400">Admin only: clear full fine</text><text x="268" y="979" font-size="16" fill="#536660" font-weight="400">Completion follows quantities automatically.</text><rect x="248" y="1035" width="300" height="44" rx="8" fill="#12645C"/><text x="262" y="1063" font-size="14" fill="#FFFFFF" font-weight="600">Record return</text><text x="248" y="1099" font-size="14" fill="#536660" font-weight="400">Review quantities and consequences before confirming.</text></g></svg>
