<svg xmlns="http://www.w3.org/2000/svg" width="256" height="256" viewBox="0 0 256 256"><title>Fictional illustrated presentation avatar 28</title><rect width="256" height="256" rx="128" fill="#d9e8df"/><path d="M51 256q0-84 77-84t77 84" fill="#8a743f"/><path d="M102 152v31q26 23 52 0v-31" fill="#95613f"/><ellipse cx="128" cy="112" rx="48" ry="60" fill="#95613f"/><path d="M79 112V82q0-51 51-51q54 0 50 78l-20-23q-33 22-64-4Z" fill="#29282c"/><path d="M101 108h12m30 0h12" stroke="#29282c" stroke-width="5" stroke-linecap="round"/><circle cx="109" cy="117" r="3" fill="#30303a"/><circle cx="149" cy="117" r="3" fill="#30303a"/><path d="M117 145q12 11 24 0" stroke="#8b4e42" stroke-width="4" fill="none" stroke-linecap="round"/><path d="M94 183l34 27 34-27" stroke="#ffffff" stroke-width="5" fill="none" opacity=".6"/><g fill="none" stroke="#414963" stroke-width="4"><rect x="94" y="107" width="29" height="22" rx="6"/><rect x="134" y="107" width="29" height="22" rx="6"/><path d="M123 116h11"/></g></svg>
