<svg xmlns="http://www.w3.org/2000/svg" width="256" height="256" viewBox="0 0 256 256"><title>Fictional illustrated presentation avatar 11</title><rect width="256" height="256" rx="128" fill="#e7ddca"/><path d="M51 256q0-84 77-84t77 84" fill="#936575"/><path d="M102 152v31q26 23 52 0v-31" fill="#e3ba92"/><ellipse cx="128" cy="112" rx="48" ry="60" fill="#e3ba92"/><path d="M79 112V82q0-51 51-51q51 0 50 69l-20-23q-33 22-64-4Z" fill="#6a4a32"/><path d="M101 108h12m30 0h12" stroke="#6a4a32" stroke-width="5" stroke-linecap="round"/><circle cx="109" cy="117" r="3" fill="#30303a"/><circle cx="149" cy="117" r="3" fill="#30303a"/><path d="M117 145q12 8 24 0" stroke="#8b4e42" stroke-width="4" fill="none" stroke-linecap="round"/><path d="M94 183l34 27 34-27" stroke="#ffffff" stroke-width="5" fill="none" opacity=".6"/><path d="M100 152q28 31 57-1l-8 18h-39Z" fill="#6a4a32" opacity=".8"/><path d="M76 118q-20 45 9 68l-8-80m102 0q24 59-4 77" fill="#6a4a32"/></svg>
